<?xml version="1.0" standalone="no"?>
<!DOCTYPE svg PUBLIC "-//W3C//DTD SVG 20010904//EN"
 "http://www.w3.org/TR/2001/REC-SVG-20010904/DTD/svg10.dtd">
<svg version="1.0" xmlns="http://www.w3.org/2000/svg"
 width="214.000000pt" height="214.000000pt" viewBox="0 0 214.000000 214.000000"
 preserveAspectRatio="xMidYMid meet">

<g transform="translate(0.000000,214.000000) scale(0.100000,-0.100000)"
fill="#000000" stroke="none">
<path d="M730 1941 c-69 -22 -240 -128 -318 -197 -60 -54 -163 -194 -215 -294
-44 -84 -66 -155 -82 -260 -37 -243 -3 -408 127 -608 53 -82 77 -84 100 -9 10
28 27 81 38 117 12 36 24 98 27 138 6 73 6 73 32 67 14 -4 70 -25 124 -47 114
-47 116 -52 68 -164 -16 -38 -34 -89 -41 -113 -11 -40 -9 -46 15 -82 l27 -38
57 36 c31 19 64 42 74 51 36 32 28 0 -13 -54 -54 -69 -160 -167 -204 -188 -21
-10 -61 -16 -105 -16 -39 0 -71 -2 -71 -5 0 -4 7 -20 16 -37 l16 -31 131 7
c128 6 132 6 207 -23 123 -48 330 -64 517 -41 207 26 409 133 570 303 82 87
125 155 184 298 l43 104 0 190 c0 259 -18 322 -145 522 -86 135 -79 129 -128
104 l-41 -21 -87 19 c-98 21 -190 58 -219 88 -57 59 -248 98 -429 89 -195 -9
-290 -42 -417 -145 -126 -102 -242 -280 -271 -417 -10 -50 -10 -56 10 -76 l21
-21 21 71 c12 39 40 108 63 154 34 69 59 101 144 184 57 56 122 111 146 123
125 60 416 83 562 44 38 -10 71 -23 73 -30 3 -7 -31 -19 -92 -33 -123 -29
-162 -56 -207 -147 -30 -62 -33 -75 -33 -163 0 -80 4 -105 26 -156 56 -134
186 -291 307 -373 34 -23 60 -46 57 -52 -10 -15 -87 -10 -171 11 -43 12 -108
27 -144 35 -36 7 -73 17 -82 20 -14 5 -18 -3 -23 -50 l-8 -57 -41 5 c-90 10
-586 218 -699 293 -36 24 -37 26 -37 87 1 125 57 306 132 417 97 146 194 225
383 315 89 42 115 59 105 65 -20 13 -36 12 -100 -9z m855 -429 c51 -26 70 -48
133 -152 61 -101 77 -166 69 -292 -5 -80 -23 -138 -46 -153 -6 -3 -29 27 -52
67 -44 75 -96 132 -240 260 -95 85 -119 123 -119 191 0 50 14 71 65 94 41 18
140 11 190 -15z m-809 -814 c-4 -29 -14 -74 -22 -100 -14 -43 -19 -48 -46 -48
-30 0 -31 0 -24 43 9 58 37 140 50 149 6 4 19 8 30 8 17 0 18 -5 12 -52z m404
-64 c105 -26 190 -51 190 -56 0 -5 -13 -22 -28 -38 -33 -33 -103 -46 -190 -35
-70 9 -86 16 -139 68 -34 32 -43 48 -43 74 0 18 5 33 10 33 6 0 96 -21 200
-46z"/>
<path d="M934 1579 c-48 -70 -75 -83 -155 -75 -81 7 -98 -7 -58 -50 101 -109
259 -43 259 108 0 26 -4 49 -9 52 -5 3 -21 -13 -37 -35z"/>
<path d="M930 1282 c-33 -10 -55 -42 -114 -164 l-61 -127 24 -11 c32 -15 161
-50 161 -44 0 3 -9 23 -21 46 -29 56 -27 100 5 182 29 75 32 126 6 118z"/>
<path d="M420 1199 l0 -41 57 7 c76 9 103 21 103 44 0 21 -34 31 -111 31 l-49
0 0 -41z"/>
</g>
</svg>
